<svg id="Calque_1" data-name="Calque 1" xmlns="http://www.w3.org/2000/svg" viewBox="0 0 1000 1000"><defs><style>.cls-1{fill:#fff;}</style></defs><path class="cls-1" d="M1460,165v875H460V165h31.12v94.08H522.2v62.09h31.91v31.08h31.07v31.9h61.41v31.08H553.84v30.91H522.31v62.51h93.83V476.94h31.08V445.86h31.91V414.78H772.2V383.87h31.56V290H709.82V258.88h-93.9V226.8H584.84V195.9H553.76V133.81H521.85V101.73H490.78V71H460V40H1460V71h-31.13v31.08h-32.08v32.08h-30.9v62.09h-31.08v30.9h-31.08v32.08h-93.9v30.91h-93.52v94.08h30.84v30.91h94.07v31.08h30.91v31.08h32.08v31.39h92.55V446h-31V414.89h-93.49V383.81h62.85v-31.9h31.08V320.82h30.9v-61.9h31.9V165ZM740.83,602.17V539.92h-30.9V477.41H678.86v31.72H647.39v62.08h31.73v63.08h31.07v30.9h31.08v31.08h30.37V821.18H740.93v63.08H710.26v61.9h31v31.08h62.89v31.45h312.06V977h63.08V945.87h30.4V883.79h-30.87v-62.9h-31.54V696h32V664.91h30.9V633.83h31.08V570.92h30.43V508.84h-30.74V477.45h-31.08v62.76h-30.9v61.9h-32.07v32.08h-61.9v31.08h-30.64v30.9h31V852.25h30.42v63.08h-30.87v30.9h-62.9v30.54H896.82V945.94h-61.9V914.86H804.26V852h31V695.88h30.43V664.8H834.8V633.9H771.9V602.17Zm188-187.5h62.23V384h63V351.75h30.56V290.36h-31v30.41H865.92V290.39H835.25V352.1h30.94v32h62.69Z" transform="translate(-460 -40)"/><path d="M460,71h30.78v30.73h31.07v32.08h31.91V195.9h31.08v30.9h31.08v32.08h93.9V290h93.94v93.91H772.2v30.91H679.13v31.08H647.22v31.08H616.14v31.72H522.31V446.15h31.53V415.24h92.75V384.16H585.18v-31.9H554.11V321.18H522.2V259.09H491.12V165H460Z" transform="translate(-460 -40)"/><path d="M1460,165h-31v93.91h-31.9v61.9h-30.9v31.09h-31.08v31.9h-62.85v31.08h93.49V446h31v62.71h-92.55V477.29h-32.08V446.21h-30.91V415.13h-94.07V384.22h-30.84V290.14h93.52V259.23h93.9V227.15h31.08v-30.9h31.08V134.16h30.9V102.08h32.08V71H1460Z" transform="translate(-460 -40)"/><path d="M740.83,602.17H771.9V633.9h62.9v30.9h30.86v31.08H835.23V852h-31v62.9h30.66v31.08h61.9v30.83h125.07V946.23h62.9v-30.9h30.87V852.25h-30.42V696.17h-31v-30.9h30.64V634.19h61.9V602.11h32.07v-61.9h30.9V477.45h31.08v31.39h30.74v62.08h-30.43v62.91h-31.08v31.08h-30.9V696h-32v124.9h31.54v62.9h30.87v62.08h-30.4V977h-63.08v31.74H804.11V977.24H741.22V946.16h-31v-61.9h30.67V821.18h30.71V696.27H741.27V665.19H710.19v-30.9H679.12V571.21H647.39V509.13h31.47V477.41h31.07v62.51h30.9Z" transform="translate(-460 -40)"/><path d="M928.88,414.67V384.15H866.19v-32H835.25V290.39h30.67v30.38h187.82V290.36h31v61.39h-30.56V384h-63v30.69Z" transform="translate(-460 -40)"/></svg>